<svg xmlns="http://www.w3.org/2000/svg" viewBox="0 0 383.57 404.66"><defs><style>.cls-1{fill:#fff;}</style></defs><title>v3</title><g id="Layer_2" data-name="Layer 2"><g id="Layer_1-2" data-name="Layer 1"><g id="v3"><g id="Layer_1-2-2" data-name="Layer 1-2"><g id="v1"><path d="M199.24,382.33c-31.76-.28-57.8-4.89-82.57-15.76a5,5,0,0,0-5.08.45,759,759,0,0,1-69,35.41,28.59,28.59,0,0,1-4.82,1.82c-7.38,1.9-12.5-3.12-10.18-10.34,6.87-21.46,15.7-42.2,24-63.11,1.7-4.27,1.64-7-1.81-10.67C14.16,282.32-1.37,236.59.09,185.39,2.8,90.7,74.07,13.33,168.19,1.5A191.73,191.73,0,0,1,367.93,115.31c49,113-22.2,244.36-143.53,264.68C214.51,381.65,204.49,382.54,199.24,382.33Z"/><path class="cls-1" d="M226.88,288.71c-3.9-.64-5.17-3.31-5.56-6.86-1.69-15.65-3-31.38-7.34-46.59-9.19-32.27-32.1-47.92-64-52.52-5.66-.82-11.32-1.61-17-2.51-2.84-.45-4.89-1.93-4.83-5.09s2.2-4.3,4.8-4.83c10-2,20.26-3.37,30.08-6.15,34.08-9.64,50.32-34.14,55-67.78,1.41-10,2.54-20.11,3.86-30.16.39-3,1.59-5.84,5-5.74s4.53,3,4.91,6.16c2,17.22,2.67,34.72,8.64,51.23,11,30.32,34.34,44.55,64.86,49.3,5.85.91,11.68,2,17.45,3.25,2.27.51,4.73,1.58,4.56,4.64s-2.54,4-5.08,4.55c-10.1,2.15-20.41,3.22-30.42,6-32.47,8.93-50,30.91-55.53,63.3-1.92,11.25-3,22.65-4.56,34C231.37,285.71,230.55,288.43,226.88,288.71Z"/><path class="cls-1" d="M123,152c-.88-.15-1.16-.74-1.25-1.54a62.33,62.33,0,0,0-1.64-10.44c-2.06-7.22-7.19-10.73-14.34-11.76-1.27-.18-2.53-.36-3.81-.56a1.1,1.1,0,0,1-1.08-1.14c0-.71.49-1,1.08-1.08,2.24-.45,4.53-.76,6.73-1.38C116.31,122,120,116.48,121,108.94c.32-2.24.57-4.5.87-6.75.09-.67.36-1.31,1.12-1.29s1,.68,1.1,1.38c.45,3.86.6,7.78,1.93,11.48,2.47,6.79,7.7,10,14.53,11,1.31.21,2.62.45,3.91.73.51.11,1.06.35,1,1s-.57.9-1.13,1c-2.27.48-4.58.72-6.82,1.34-7.27,2-11.2,6.93-12.44,14.18-.43,2.52-.67,5.08-1,7.62C124,151.35,123.8,152,123,152Z"/><path class="cls-1" d="M106,261c-.88-.15-1.16-.74-1.25-1.54a62.33,62.33,0,0,0-1.64-10.44c-2.06-7.22-7.19-10.73-14.34-11.76-1.27-.18-2.53-.36-3.81-.56a1.1,1.1,0,0,1-1.08-1.14c0-.71.49-1,1.08-1.08,2.24-.45,4.53-.76,6.73-1.38C99.31,231,103,225.48,104,217.94c.32-2.24.57-4.5.87-6.75.09-.67.36-1.31,1.12-1.29s1,.68,1.1,1.38c.45,3.86.6,7.78,1.93,11.48,2.47,6.79,7.7,10,14.53,11,1.31.21,2.62.45,3.91.73.51.11,1.06.35,1,1s-.57.9-1.13,1c-2.27.48-4.58.72-6.82,1.34-7.27,2-11.2,6.93-12.44,14.18-.43,2.52-.67,5.08-1,7.62C107,260.35,106.8,261,106,261Z"/></g></g></g></g></g></svg>